<?xml version="1.0" encoding="iso-8859-1"?>
<!-- Generator: Adobe Illustrator 19.0.0, SVG Export Plug-In . SVG Version: 6.00 Build 0)  -->
<svg version="1.1" id="Capa_1" xmlns="http://www.w3.org/2000/svg" xmlns:xlink="http://www.w3.org/1999/xlink" x="0px" y="0px"
	 viewBox="0 0 512 512" style="enable-background:new 0 0 512 512;" xml:space="preserve">
<g>
	<g>
		<path d="M489.91,314.69c12.181,0,22.09-9.91,22.09-22.09V137.7c0-67.095-54.585-121.68-121.68-121.68
			c-28.214,0-55.703,9.868-77.403,27.785c-21.423,17.678-36.27,42.318-41.805,69.382c-0.83,4.058,1.786,8.021,5.845,8.851
			c4.057,0.835,8.021-1.787,8.851-5.845c4.852-23.716,17.869-45.315,36.658-60.82c19.02-15.704,43.118-24.353,67.854-24.353
			C449.144,31.02,497,78.876,497,137.7v40.017c-3.8-2.147-8.154-3.422-12.79-3.55v-19.075c0-4.142-3.357-7.5-7.5-7.5h-8.882
			c-14.757,0-26.763-12.005-26.763-26.762v-2.57c0-5.703-3.425-10.743-8.725-12.838c-5.299-2.097-11.244-0.761-15.146,3.399
			l-9.331,9.96c-17.155,18.31-41.385,28.811-66.476,28.811h-37.473c-4.143,0-7.5,3.358-7.5,7.5v19.075
			c-4.631,0.13-8.98,1.404-12.776,3.547V150.26c0-4.142-3.357-7.5-7.5-7.5s-7.5,3.358-7.5,7.5V292.6
			c0,12.18,9.905,22.09,22.08,22.09H350.4v11.75H187.86h-15.69v-14.402c9.035-4.249,17.422-9.947,24.827-17.001
			c0.112-0.107,0.217-0.22,0.329-0.327h41.764c8.177,0,14.83-6.657,14.83-14.84V137.7c0-67.095-54.585-121.68-121.68-121.68
			c-23.643,0-46.567,6.79-66.289,19.632C46.752,48.137,31.499,65.712,21.84,86.477c-1.747,3.755-0.119,8.216,3.637,9.963
			c3.755,1.748,8.216,0.119,9.963-3.637c8.472-18.212,21.85-33.626,38.692-44.579C91.417,36.969,111.51,31.02,132.24,31.02
			c58.823,0,106.68,47.856,106.68,106.68v40.019c-3.799-2.146-8.151-3.421-12.786-3.551v-19.075c0-4.142-3.358-7.5-7.5-7.5h-92.113
			c-3.718,0-6.974-2.38-8.102-5.922l-7.735-24.282c-1.513-4.75-5.879-7.941-10.865-7.941c-4.985,0-9.351,3.192-10.863,7.941
			l-7.735,24.282c-1.128,3.542-4.384,5.922-8.102,5.922H45.841c-4.142,0-7.5,3.358-7.5,7.5v19.075
			c-4.632,0.13-8.983,1.405-12.781,3.549V137.7c0-4.322,0.261-8.661,0.775-12.896c0.5-4.112-2.429-7.85-6.541-8.35
			c-4.111-0.497-7.85,2.429-8.35,6.541c-0.587,4.833-0.885,9.781-0.885,14.705v142.17c0,8.183,6.657,14.84,14.84,14.84h41.715
			c7.355,7.077,15.868,12.941,25.205,17.328v14.402h-15.7c-4.596,0-9.131,0.511-13.555,1.512c-3.668-6.422-10.57-10.77-18.48-10.77
			H26.258C11.779,317.182,0,328.961,0,343.44v40.942c0,10.573,6.284,19.699,15.31,23.858v80.24c0,4.142,3.358,7.5,7.5,7.5h218.87
			c4.142,0,7.5-3.358,7.5-7.5V387.76c0-18.482-8.231-35.068-21.206-46.32H350.4v3.79c0,22.012,17.908,39.92,39.92,39.92
			c10.67,0,20.694-4.156,28.224-11.697c7.542-7.542,11.696-17.566,11.696-28.223v-3.79h15.7c25.535,0,46.31,20.779,46.31,46.32
			v93.22h-21.144v-50.446c0-4.142-3.357-7.5-7.5-7.5s-7.5,3.358-7.5,7.5v50.446H324.53V394.4c0-4.142-3.357-7.5-7.5-7.5h-44.4
			c-4.143,0-7.5,3.358-7.5,7.5c0,4.142,3.357,7.5,7.5,7.5h36.9v86.58c0,4.142,3.357,7.5,7.5,7.5h182.72c4.143,0,7.5-3.358,7.5-7.5
			V387.76c0-33.812-27.503-61.32-61.31-61.32h-15.7v-11.75H489.91z M238.92,279.71h-28.927c8.224-12.112,13.5-25.987,15.375-40.645
			c4.922-0.001,9.544-1.3,13.552-3.563V279.71z M25.56,279.71V235.5c4.009,2.264,8.633,3.564,13.556,3.565
			c1.908,14.97,7.33,28.782,15.375,40.645H25.56z M75.941,282.325c-0.228-0.265-0.475-0.512-0.737-0.743
			c-12.631-13.2-20.733-30.809-21.745-50.404c-0.206-3.987-3.499-7.113-7.49-7.113h-6.845c-6.992,0-12.681-5.689-12.681-12.681
			v-9.546h0.002c0-6.992,5.688-12.681,12.681-12.681h6.715c4.142,0,7.5-3.358,7.5-7.5v-19.064h19.778
			c10.275,0,19.275-6.578,22.394-16.369l4.307-13.52l4.307,13.52c3.119,9.791,12.119,16.369,22.394,16.369h84.613v19.064
			c0,4.142,3.358,7.5,7.5,7.5h6.715c6.992,0,12.681,5.689,12.681,12.681v9.558c0,6.986-5.683,12.669-12.669,12.669h-6.846
			c-3.991,0-7.283,3.125-7.49,7.111c-1.049,20.192-9.707,39.016-24.378,53.003c-7.285,6.94-15.697,12.332-24.8,16.015
			c-0.071,0.029-0.14,0.059-0.21,0.09c-9.241,3.708-19.19,5.654-29.401,5.654C110.239,305.938,90.283,296.923,75.941,282.325z
			 M157.17,317.57v27.66c0,6.651-2.594,12.907-7.303,17.617c-4.709,4.71-10.97,7.303-17.626,7.303
			c-13.741,0-24.92-11.179-24.92-24.92v-27.649c7.943,2.179,16.296,3.357,24.917,3.357
			C140.765,320.938,149.132,319.775,157.17,317.57z M15,384.382V343.44c0-6.208,5.05-11.258,11.258-11.258h18.327
			c3.463,0,6.281,2.818,6.281,6.281v50.896c0,3.463-2.818,6.281-6.281,6.281H26.258C20.05,395.64,15,390.59,15,384.382z
			 M234.18,387.76v93.22h-21.15v-50.446c0-4.142-3.358-7.5-7.5-7.5c-4.142,0-7.5,3.358-7.5,7.5v50.446H66.455v-50.446
			c0-4.142-3.358-7.5-7.5-7.5c-4.142,0-7.5,3.358-7.5,7.5v50.446H30.31v-70.339h14.275c11.734,0,21.281-9.547,21.281-21.281v-46.654
			c3.502-0.834,7.1-1.265,10.754-1.265h15.7v3.79c0,22.012,17.908,39.92,39.92,39.92c10.664,0,20.69-4.154,28.233-11.697
			c7.543-7.542,11.697-17.566,11.697-28.223v-3.79h15.69C213.401,341.44,234.18,362.219,234.18,387.76z M497,235.498V292.6h0
			c0,3.909-3.181,7.09-7.09,7.09h-40.14c1.812-1.486,3.59-3.022,5.301-4.653c15.725-14.99,25.644-34.654,28.372-55.972
			C488.367,239.064,492.99,237.764,497,235.498z M290.72,299.69c-3.905,0-7.08-3.181-7.08-7.09v-57.098
			c4.009,2.263,8.631,3.562,13.553,3.563c3.116,24.455,15.577,45.843,33.617,60.625H290.72z M415.24,345.23
			c0,6.651-2.594,12.907-7.308,17.621c-4.699,4.707-10.954,7.299-17.612,7.299c-13.741,0-24.92-11.179-24.92-24.92v-27.647
			c7.943,2.178,16.294,3.355,24.913,3.355c8.525,0,16.891-1.162,24.927-3.366V345.23z M419.804,300.246
			c-0.062,0.025-0.124,0.052-0.185,0.078c-9.213,3.683-19.129,5.613-29.304,5.613c-10.366,0-20.277-2.007-29.365-5.649
			c-0.042-0.018-0.086-0.032-0.129-0.049c-0.015-0.006-0.031-0.01-0.046-0.017c-27.652-11.158-47.61-37.533-49.237-69.044
			c-0.206-3.987-3.498-7.113-7.49-7.113h-6.846c-6.992,0-12.681-5.689-12.681-12.681v-9.546h0c0-6.992,5.688-12.681,12.681-12.681
			h6.715c4.143,0,7.5-3.358,7.5-7.5v-19.064h29.973c29.223,0,57.441-12.23,77.422-33.555l7.258-7.747
			c0.246,22.817,18.885,41.302,41.76,41.302h1.382v19.064c0,4.142,3.357,7.5,7.5,7.5h6.728c6.985,0,12.669,5.689,12.669,12.681
			v9.546c0,6.992-5.684,12.681-12.669,12.681h-6.846c-3.991,0-7.283,3.125-7.49,7.111c-1.049,20.192-9.707,39.016-24.378,53.003
			C437.408,291.15,428.954,296.562,419.804,300.246z"/>
	</g>
</g>
<g>
	<g>
		<path d="M425.56,227.139c-3.842-1.557-8.212,0.294-9.77,4.131c-4.223,10.41-14.221,17.137-25.473,17.137
			c-7.337,0-14.245-2.861-19.446-8.049c-2.624-2.625-4.65-5.678-6.021-9.077c-1.551-3.84-5.919-5.7-9.763-4.147
			c-3.84,1.551-5.696,5.922-4.147,9.763c2.131,5.277,5.268,10.01,9.331,14.074c8.04,8.02,18.711,12.436,30.047,12.436
			c17.389,0,32.844-10.401,39.373-26.499C431.248,233.07,429.398,228.696,425.56,227.139z"/>
	</g>
</g>
<g>
	<g>
		<path d="M347.068,175.583c-4.143,0-7.5,3.358-7.5,7.5v4.174c0,4.142,3.358,7.5,7.5,7.5c4.143,0,7.5-3.358,7.5-7.5v-4.174
			C354.568,178.941,351.211,175.583,347.068,175.583z"/>
	</g>
</g>
<g>
	<g>
		<path d="M433.568,175.583c-4.143,0-7.5,3.358-7.5,7.5v4.174c0,4.142,3.358,7.5,7.5,7.5c4.143,0,7.5-3.358,7.5-7.5v-4.174
			C441.068,178.941,437.711,175.583,433.568,175.583z"/>
	</g>
</g>
<g>
	<g>
		<path d="M167.484,227.139c-3.837-1.556-8.211,0.292-9.769,4.131c-4.222,10.41-14.221,17.137-25.472,17.137
			c-7.336,0-14.245-2.861-19.447-8.05c-2.624-2.623-4.649-5.676-6.021-9.075c-1.55-3.841-5.919-5.699-9.762-4.148
			c-3.841,1.551-5.698,5.921-4.148,9.762c2.13,5.279,5.268,10.012,9.331,14.075c8.04,8.02,18.71,12.436,30.046,12.436
			c17.389,0,32.843-10.401,39.373-26.499C173.172,233.07,171.322,228.696,167.484,227.139z"/>
	</g>
</g>
<g>
	<g>
		<path d="M88.992,175.583c-4.142,0-7.5,3.358-7.5,7.5v4.174c0,4.142,3.358,7.5,7.5,7.5c4.142,0,7.5-3.358,7.5-7.5v-4.174
			C96.492,178.941,93.134,175.583,88.992,175.583z"/>
	</g>
</g>
<g>
	<g>
		<path d="M175.493,175.583c-4.142,0-7.5,3.358-7.5,7.5v4.174c0,4.142,3.358,7.5,7.5,7.5c4.142,0,7.5-3.358,7.5-7.5v-4.174
			C182.993,178.941,179.635,175.583,175.493,175.583z"/>
	</g>
</g>
<g>
</g>
<g>
</g>
<g>
</g>
<g>
</g>
<g>
</g>
<g>
</g>
<g>
</g>
<g>
</g>
<g>
</g>
<g>
</g>
<g>
</g>
<g>
</g>
<g>
</g>
<g>
</g>
<g>
</g>
</svg>
