<?xml version="1.0" encoding="iso-8859-1"?>
<!-- Generator: Adobe Illustrator 19.0.0, SVG Export Plug-In . SVG Version: 6.00 Build 0)  -->
<svg version="1.1" id="Layer_1" xmlns="http://www.w3.org/2000/svg" xmlns:xlink="http://www.w3.org/1999/xlink" x="0px" y="0px"
	 viewBox="0 0 511.999 511.999" style="enable-background:new 0 0 511.999 511.999;" xml:space="preserve">
<polygon style="fill:#F8F5DB;" points="282.002,120.065 261.907,151.981 266.635,169.712 283.184,182.714 280.82,211.084 
	276.091,238.272 268.999,244.182 258.361,237.09 235.901,269.005 232.355,302.103 246.54,336.383 263.089,352.932 291.458,338.747 
	322.192,308.013 332.831,309.196 342.287,270.187 354.108,267.823 357.654,282.008 357.654,293.829 365.928,292.647 
	378.931,278.462 386.024,246.546 402.573,251.274 399.026,270.187 409.665,280.826 412.029,305.649 403.755,336.383 387.206,357.66 
	365.928,371.845 351.744,390.758 336.377,409.671 360.018,417.946 382.477,414.399 422.668,356.478 464.04,282.008 498.32,188.625 
	505.412,124.793 487.681,82.239 456.948,60.962 396.662,53.869 349.38,64.508 304.461,94.06 "/>
<g>
	<polygon style="fill:#FBA237;" points="109.42,31.41 72.776,47.959 42.042,77.511 21.947,111.791 10.127,148.435 6.58,187.443 
		6.58,220.541 23.129,245.364 37.314,264.277 42.042,283.19 58.591,300.921 73.958,310.378 84.597,335.201 99.964,352.932 
		120.059,362.388 135.426,361.206 148.428,384.848 161.431,403.761 182.708,414.399 195.711,396.668 187.437,378.937 
		172.07,360.024 162.613,348.204 164.977,332.837 156.703,318.652 143.7,313.924 142.518,297.375 148.428,278.462 142.518,266.641 
		125.969,256.003 102.328,240.636 91.689,214.63 102.328,182.714 130.697,159.073 155.521,130.704 166.159,128.339 182.708,140.16 
		208.714,137.796 219.352,134.25 234.719,147.253 240.63,166.166 247.722,177.986 252.45,199.263 258.361,221.723 264.271,241.818 
		272.545,244.182 279.638,228.815 282.002,208.72 285.548,187.443 274.909,172.076 263.089,162.619 261.907,142.524 
		260.725,122.429 246.54,102.334 226.445,82.239 213.442,59.78 187.437,37.32 159.067,26.682 131.879,25.5 	"/>
	<path style="fill:#FBA237;" d="M382.477,79.875c-2.364,2.364-8.274,18.913-8.274,18.913l10.639,7.092l4.728-2.364l2.364,11.821
		l14.185,7.092l2.364-4.728l2.364,14.185l13.003,5.91l10.639-3.546l3.546,9.457l5.91,4.728l9.457-5.91l8.274,8.274l13.003,1.182
		l5.91-10.639l-3.546-17.731l-10.639-21.277l-17.731-17.731l-20.095-7.092l-21.277-2.364L382.477,79.875z"/>
</g>
<polygon style="fill:#904FC9;" points="147.246,298.557 180.344,300.921 225.263,277.28 235.901,269.005 234.719,308.013 
	248.904,339.929 265.453,352.932 303.279,329.291 322.192,308.013 343.469,312.742 358.836,338.747 362.382,364.753 360.018,386.03 
	343.469,402.579 338.741,413.217 376.567,416.764 352.926,446.315 312.736,478.231 287.912,482.959 251.268,466.41 208.714,438.041 
	182.708,414.399 195.711,396.668 181.526,368.299 164.977,355.296 167.341,335.201 156.703,322.198 143.7,313.924 "/>
<g>
	<path style="fill:#FFBBB2;" d="M157.885,131.886l-20.095,22.459l-35.462,37.826l-11.821,30.734l21.277,26.005l24.823,13.003
		l11.821,16.549l-3.546,17.731l18.913,2.364l26.005-2.364l35.462-18.913l28.37-26.005l5.91-20.095l-4.728-29.552l-7.092-23.641
		c0,0-3.546-9.457-7.092-11.821c-3.546-2.364-7.092-24.823-7.092-24.823l-18.913-5.91l-20.095,4.728l-16.549-5.91l-16.549-8.274
		L157.885,131.886z"/>
	<polygon style="fill:#FFBBB2;" points="355.29,95.242 332.831,118.883 319.828,144.888 319.828,183.897 332.831,213.448 
		349.38,234.725 376.567,246.546 382.477,256.003 380.113,271.369 371.839,287.918 360.018,293.829 357.654,282.008 
		350.562,266.641 338.741,276.098 332.831,296.193 335.195,310.378 350.562,319.834 357.654,347.022 361.2,370.663 374.203,364.753 
		393.116,350.568 408.483,324.562 414.393,298.557 410.847,276.098 401.39,270.187 400.208,251.274 414.393,250.092 
		449.855,231.179 465.222,213.448 477.043,181.532 478.225,156.709 467.586,150.799 456.948,143.706 446.309,147.253 
		438.035,143.706 434.488,134.25 420.304,135.432 410.847,131.886 408.483,120.065 397.844,118.883 391.934,115.337 389.57,103.516 
		378.931,102.334 375.385,94.06 378.931,85.785 367.111,88.149 	"/>
</g>
<path d="M150.956,22.741c0.284,0.038,0.567,0.078,0.851,0.119c0.148,0.02,0.294,0.039,0.442,0.059
	C151.821,22.859,151.394,22.8,150.956,22.741z"/>
<path d="M252.107,213.343c-0.03-0.221-0.058-0.442-0.086-0.663c-0.018-0.123-0.039-0.246-0.056-0.369
	C252.013,212.656,252.06,212.999,252.107,213.343z"/>
<path d="M183.698,216.314c0.839-0.861,1.735-1.647,2.661-2.407c0.593-0.405,1.213-0.738,1.861-1.034
	c0.573-0.209,1.137-0.371,1.727-0.488c0.572-0.05,1.134-0.058,1.707-0.021c0.407,0.08,0.8,0.183,1.197,0.312
	c0.441,0.222,0.858,0.472,1.268,0.749c0.548,0.469,1.046,0.974,1.525,1.522c0.517,0.719,0.962,1.455,1.349,2.257
	c0.319,0.85,0.576,1.714,0.753,2.604c0.034,0.533,0.03,1.05-0.005,1.582c-0.15,0.843-0.336,1.676-0.604,2.493
	c-0.161,0.316-0.338,0.616-0.533,0.914c-0.631,0.745-1.319,1.43-2.06,2.073c-0.303,0.197-0.61,0.372-0.929,0.535
	c-0.797,0.26-1.598,0.446-2.422,0.603c-1.087,0.121-2.181,0.195-3.273,0.139c-0.83-0.047-1.649-0.106-2.467-0.177
	c-0.668-0.058-1.306-0.013-1.948,0.065c0.013-0.001,0.026-0.004,0.04-0.006c-0.119,0.012-0.249,0.012-0.368,0.024
	c-1.673,0.083-3.167,0.83-4.019,2.3c-0.427,0.723-0.641,1.505-0.641,2.348c0,1.103,0.452,2.572,1.363,3.296
	c0.937,0.735,1.673,1.304,2.823,1.671c0.664,0.225,1.327,0.285,2.039,0.368c0.771,0.095,1.541,0.106,2.312,0.13
	c1.945,0.059,3.948-0.214,5.833-0.676c3.189-0.783,6.117-2.288,8.406-4.683c1.494-1.565,2.797-3.319,3.557-5.37
	c0.734-1.98,0.911-4.257,0.911-6.367c0-1.565-0.462-3.105-1.056-4.528c-0.616-1.482-1.233-2.916-2.169-4.233
	c-2.371-3.355-5.881-5.975-10.03-6.438c-0.465-0.052-0.924-0.077-1.382-0.077c-2.544,0-4.975,0.779-7.237,1.974
	c-0.961,0.509-1.801,1.257-2.621,1.956c-0.747,0.641-1.47,1.292-2.157,2.004c-1.233,1.268-1.257,3.331,0,4.589
	C180.355,217.558,182.465,217.582,183.698,216.314z"/>
<path d="M157.537,237.312c1.031-1.707,1.316-3.746,1.517-5.69c0.285-2.585,0.013-5.49-1.375-7.754
	c-0.817-1.312-2.231-2.121-3.735-2.121c-0.371,0-0.751,0.05-1.125,0.152c-2.216,0.604-3.699,3.047-3.012,5.287
	c0.195,0.641,0.346,1.304,0.47,1.966c0.043,0.661,0.027,1.304-0.032,1.962c-0.092,0.488-0.195,0.969-0.338,1.444
	c-0.098,0.173-0.204,0.339-0.317,0.504c-0.368,0.417-0.747,0.814-1.157,1.194c-0.293,0.183-0.592,0.346-0.902,0.498
	c-0.83,0.286-1.668,0.495-2.528,0.661c-0.507,0.038-1.006,0.046-1.517,0.02c-0.702-0.135-1.385-0.318-2.059-0.553
	c-0.232-0.118-0.457-0.245-0.676-0.381c-0.086-0.084-0.171-0.168-0.255-0.255c-0.208-0.339-0.394-0.69-0.566-1.051
	c-0.37-1.052-0.579-2.111-0.734-3.225c0.022,0.164,0.043,0.331,0.064,0.498c-0.154-1.097-0.383-2.005-1.213-2.845
	c-0.794-0.783-1.872-1.233-2.987-1.233c-1.114,0-2.193,0.45-2.987,1.233c-0.7,0.712-1.375,1.956-1.233,2.987
	c0.261,2.004,0.498,3.948,1.257,5.833c0.426,1.056,0.853,2.098,1.541,3.011c0.865,1.15,1.731,1.945,2.904,2.786
	c1.056,0.759,2.394,1.197,3.604,1.612c1.316,0.439,2.739,0.604,4.125,0.688c1.482,0.071,3.071-0.261,4.517-0.58
	c1.221-0.285,2.407-0.842,3.533-1.376c1.138-0.545,2.145-1.482,3.024-2.383C156.186,239.351,156.922,238.332,157.537,237.312z"/>
<path d="M210.642,198.19c0.025,0.059,0.05,0.117,0.074,0.175c0.008,0.017,0.015,0.032,0.024,0.05
	C210.707,198.339,210.675,198.265,210.642,198.19z"/>
<path d="M207.027,205.837c1.209,1.47,2.585,2.822,4.114,3.96c2.383,1.778,5.298,2.798,8.263,2.963
	c0.806,0.047,1.649-0.167,2.442-0.285c1.044-0.143,2.182-0.664,3.118-1.103c1.577-0.759,3.129-1.707,4.257-3.071
	c1.505-1.837,2.359-4.09,2.999-6.343c0.416-1.434,0.582-2.952,0.641-4.446c0.059-1.707-0.32-3.427-0.818-5.051
	c-0.427-1.447-0.901-2.798-1.482-4.196c-0.45-0.747-1.043-1.352-1.801-1.791c-0.771-0.456-1.653-0.688-2.537-0.688
	c-0.447,0-0.895,0.059-1.329,0.178c-1.245,0.344-2.336,1.186-2.999,2.3c-0.605,1.043-0.985,2.703-0.498,3.865
	c0.381,0.909,0.777,1.801,1.17,2.699c0.261,0.647,0.496,1.296,0.662,1.971c0.019,0.476,0.012,0.949-0.018,1.424
	c-0.251,1.106-0.587,2.182-0.986,3.247c-0.143,0.303-0.296,0.597-0.468,0.887c-0.098,0.098-0.199,0.194-0.301,0.287
	c-0.567,0.385-1.149,0.729-1.758,1.036c-0.316,0.103-0.629,0.194-0.95,0.271c-0.322,0.012-0.641,0.008-0.962-0.011
	c-0.723-0.13-1.427-0.312-2.121-0.554c-0.764-0.39-1.472-0.84-2.176-1.332c-0.582-0.475-1.136-0.97-1.636-1.54
	c-0.392-0.597-0.72-1.215-1.011-1.862c-0.033-0.08-0.069-0.16-0.103-0.238c0.011,0.026,0.022,0.053,0.033,0.079
	c-0.019-0.043-0.038-0.086-0.057-0.129c-0.327-0.716-0.713-1.298-1.46-1.728c-0.796-0.474-1.779-0.605-2.68-0.356
	c-0.877,0.238-1.624,0.818-2.088,1.601c-0.427,0.723-0.688,1.874-0.356,2.692C204.916,202.469,205.71,204.236,207.027,205.837z"/>
<path d="M168.515,267.756c2.442,0.664,4.908,1.352,7.41,1.707c2.857,0.403,5.643,0.629,8.537,0.616
	c2.81-0.024,5.655-0.332,8.429-0.759c3.948-0.616,7.707-1.85,11.322-3.533c1.174-0.545,2.312-1.091,3.439-1.707
	c1.268-0.688,2.466-1.447,3.687-2.229c2.383-1.518,4.54-3.449,6.698-5.264c2.775-2.359,5.394-5.05,7.601-7.92
	c1.778-2.336,3.225-4.837,4.552-7.445c1.246-2.43,2.218-5.027,2.858-7.683c0.616-2.562-0.783-5.228-3.378-5.952
	c-0.417-0.113-0.837-0.168-1.252-0.168c-2.131,0-4.108,1.433-4.712,3.546c-0.306,1.096-0.673,2.171-1.079,3.232
	c-1.457,3.024-3.11,5.949-5.095,8.656c-2.7,3.264-5.88,6.079-9.077,8.835c-0.595,0.455-1.188,0.91-1.787,1.365
	c-0.83,0.629-1.754,1.15-2.632,1.72c-1.583,1.037-3.344,1.822-5.047,2.632c-1.208,0.487-2.419,0.96-3.667,1.363
	c-1.752,0.577-3.545,0.894-5.359,1.205c-1.971,0.235-3.949,0.428-5.928,0.479c-2.097,0.061-4.161-0.034-6.24-0.262
	c-2.277-0.422-4.52-0.965-6.753-1.575c-2.489-0.676-5.146,0.818-5.833,3.319C164.52,264.413,166.026,267.08,168.515,267.756z"/>
<path d="M511.512,129.114c-0.331-3.486-0.889-6.923-1.624-10.338c-0.675-3.153-1.66-6.212-2.656-9.283
	c-1.019-3.13-2.241-6.259-3.591-9.259c-1.34-2.953-2.727-5.833-4.422-8.595c-1.801-2.916-3.817-5.679-5.928-8.37
	c-1.826-2.336-3.617-4.707-5.56-6.935c-2.122-2.454-4.315-4.766-6.651-7.019c-2.513-2.419-5.335-4.54-8.156-6.569
	c-3.829-2.762-8.24-4.517-12.661-6.082c-2.715-0.972-5.478-1.791-8.24-2.632c-5.727-1.767-11.559-3.296-17.393-4.719
	c-3.616-0.889-7.232-1.434-10.919-1.862c-2.916-0.332-5.903-0.545-8.832-0.557c-0.111,0-0.222,0-0.333,0
	c-12.966,0-25.965,1.369-38.767,3.344c-3.058,0.462-6.117,0.985-9.104,1.801c-2.904,0.794-5.738,1.778-8.572,2.81
	c-6.449,2.348-12.911,4.672-19.099,7.659c-5.596,2.703-10.812,6.117-15.85,9.733c-5.442,3.924-10.623,8.146-15.71,12.509
	c-10.089,8.63-18.281,19.183-26.153,29.781c-5.059,6.821-9.479,14.078-13.47,21.568c-0.403-3.328-1.153-6.615-2.242-9.824
	c-0.842-2.442-1.683-4.861-2.537-7.291c-1.446-4.09-3.153-8.18-5.607-11.76c-4.15-6.058-10.172-10.516-15.4-15.578
	c-3.677-3.573-7.15-7.296-10.504-11.18c-1.428-1.869-2.832-3.745-4.138-5.703c-1.732-2.572-3.391-5.193-5.134-7.765
	c-1.921-2.845-3.913-5.69-6.188-8.287c-0.937-1.079-1.838-2.206-2.87-3.201c-1.161-1.127-2.324-2.253-3.532-3.331
	c-4.992-4.434-10.172-8.571-15.602-12.437c-2.193-1.565-4.542-2.906-6.852-4.268c-2.644-1.565-5.289-3.118-7.932-4.672
	c-5.169-3.034-10.944-4.742-16.776-5.964c-3.55-0.736-7.099-1.462-10.697-1.979c-2.662-0.357-5.326-0.69-8.011-0.949
	c-1.298-0.132-2.604-0.171-3.914-0.171c-1.155,0-2.31,0.03-3.461,0.052c-2.549,0.059-5.098,0.439-7.623,0.783
	c-2.336,0.32-4.648,0.806-6.948,1.376c-4.718,1.174-9.366,2.619-13.954,4.22c-4.896,1.707-9.78,3.486-14.557,5.513
	c0.307-0.13,0.628-0.273,0.936-0.403c-5.881,2.489-11.713,5.026-17.251,8.252c-5.5,3.213-10.776,6.746-15.945,10.48
	c-5.181,3.735-9.959,7.896-14.619,12.236c-2.192,2.027-4.244,4.198-6.283,6.367c-2.122,2.241-4.173,4.564-6.045,7.006
	c-0.855,1.103-1.791,2.182-2.562,3.355c-0.948,1.435-1.885,2.857-2.822,4.292c-1.577,2.383-3.012,4.896-4.363,7.41
	c-3.046,5.643-5.903,11.416-8.168,17.427c-2.169,5.751-4.173,11.571-6.295,17.344c-2.076,5.643-4.28,11.239-6.427,16.859
	c-2.774,7.291-3.663,14.938-3.473,22.692c0.083,3.426,0.214,6.829,0.391,10.244c0.32,5.773,0.391,11.559,0.261,17.356
	c-0.083,3.142-0.13,6.296-0.177,9.438c-0.06,4.434,0.32,8.844,1.008,13.219c0.7,4.493,2.277,8.702,4.291,12.757
	c1.707,3.45,4.031,6.592,6.272,9.698c1.862,2.597,3.83,5.157,5.929,7.564c2.144,2.488,4.374,4.926,6.453,7.475
	c1.15,1.569,2.144,3.196,2.988,4.948c1.277,3.427,1.966,6.965,2.675,10.553c0.378,1.945,0.722,3.877,1.197,5.786
	c0.641,2.643,1.577,5.098,2.668,7.576c1.731,3.936,4.564,7.315,7.802,10.101c2.11,1.825,4.446,3.415,6.699,5.05
	c4.752,3.437,9.533,6.802,14.204,10.344c1.946,1.608,3.798,3.3,5.468,5.2c1.026,1.45,1.871,2.969,2.63,4.578
	c1.517,3.838,2.93,7.722,4.515,11.532c2.004,4.861,4.611,9.295,7.765,13.492c1.541,2.039,3.154,4.019,4.825,5.964
	c3.012,3.486,6.343,6.591,10.183,9.188c2.145,1.457,4.601,2.619,6.982,3.651c1.435,0.629,2.882,1.292,4.352,1.849
	c2.844,1.079,5.75,1.754,8.821,1.732c1.707-0.025,3.426-0.297,5.134-0.463c1.949-0.2,3.88-0.306,5.826-0.161
	c0.628,0.125,1.233,0.284,1.839,0.487c0.501,0.261,0.98,0.54,1.446,0.846c0.461,0.417,0.888,0.852,1.297,1.322
	c1.975,2.891,3.375,6.174,4.841,9.337c1.184,2.562,2.358,5.146,3.544,7.718c2.549,5.513,5.999,10.445,10.03,14.985
	c2.573,2.892,5.264,5.75,8.181,8.287c3.023,2.644,6.342,4.778,9.923,6.556c2.517,1.252,5.137,2.235,7.841,2.885
	c1.628,1.927,3.497,3.663,5.357,5.37c4.28,3.924,8.785,7.564,13.231,11.31c4.695,3.948,9.259,8.073,14.049,11.915
	c5.241,4.196,10.611,8.274,16.219,11.974c5.109,3.368,10.362,6.497,15.389,10.006c5.062,3.521,9.981,7.256,15.127,10.671
	c2.455,1.636,4.908,3.236,7.481,4.682c3.047,1.731,6.343,2.976,9.639,4.15c7.066,2.549,14.784,2.395,22.146,1.494
	c3.545-0.427,6.947-1.233,10.373-2.241c3.309-0.985,6.474-2.229,9.509-3.901c2.703-1.494,5.289-3.083,7.777-4.908
	c2.609-1.921,5.157-3.948,7.707-5.94c4.825-3.781,9.389-7.86,13.86-12.057c4.481-4.22,8.951-8.477,13.278-12.863
	c7.137-7.232,14.096-14.606,20.842-22.193c6.679-7.508,12.829-15.407,18.926-23.392c3.929-5.019,7.906-9.991,11.649-15.14
	c3.426-4.719,6.378-9.757,9.129-14.89c2.988-5.584,5.763-11.263,8.667-16.882c2.785-5.383,6.033-10.492,9.035-15.744
	c3.213-5.631,6.39-11.275,9.591-16.906c3.105-5.454,6.164-10.931,9.035-16.515c6.117-11.903,12.033-23.878,17.155-36.243
	c0.611-1.472,1.222-2.953,1.835-4.435c2.388-5.598,4.839-11.155,7.364-16.679c2.798-6.107,5.43-12.295,7.695-18.602
	c4.328-12.069,8.335-24.232,11.725-36.61c1.649-6.046,3.024-12.165,4.125-18.341c1.151-6.532,2.513-13.005,3.829-19.503
	c0.913-4.469,1.577-9.011,1.956-13.539C512.189,137.804,511.928,133.428,511.512,129.114z M270.128,153.188
	c-0.011,0.025-0.022,0.05-0.032,0.076c0.019-0.043,0.037-0.084,0.056-0.125c0.056-0.119,0.109-0.241,0.162-0.365
	c1.203-2.67,2.632-5.251,4.051-7.821c1.459-2.656,2.987-5.287,4.611-7.86c1.803-2.845,3.545-5.738,5.491-8.488
	c1.831-2.584,3.694-5.125,5.598-7.663c0.84-1.083,1.683-2.167,2.526-3.249c-0.011,0.085-0.027,0.17-0.039,0.254
	c-0.403,3.105-0.853,6.224-1.125,9.342c-0.309,3.45-0.452,6.9-0.558,10.362c-0.095,3.343-0.236,6.674-0.391,10.006
	c-0.071,1.423-0.154,2.857-0.154,4.28c-0.012,1.826,0.012,3.64,0.083,5.478c0.118,3.26,0.545,6.532,0.889,9.77
	c0.368,3.473,0.889,6.935,1.589,10.362c0.628,3.154,1.471,6.272,2.359,9.355c0.924,3.177,1.849,6.367,3.011,9.473
	c1.234,3.284,2.526,6.532,3.877,9.78c2.513,6.083,5.003,12.2,8.263,17.938c1.732,3.024,3.521,6.011,5.324,8.987
	c1.611,2.68,3.225,5.37,4.967,7.955c1.933,2.857,3.876,5.702,6.118,8.323c2.075,2.442,4.385,4.659,6.686,6.876
	c2.69,2.609,5.537,5.05,8.477,7.363c0.161,0.123,0.309,0.255,0.468,0.378c-1.197,0.774-2.356,1.609-3.455,2.56
	c-1.103,0.949-2.039,2.193-2.882,3.368c-0.96,1.316-1.731,2.692-2.418,4.162c-2.216,4.802-3.604,9.863-4.695,15.022
	c-0.099,0.479-0.167,0.968-0.254,1.453c-0.327-0.002-0.657-0.005-0.986-0.009c-1.861-0.012-3.711-0.012-5.56-0.012
	c-1.137,0-2.264,0-3.39,0c-2.489,0.012-4.979,0.012-7.458-0.047c-3.96-0.083-7.907-0.285-11.855-0.569
	c-3.746-0.273-7.493-0.462-11.227-0.853c-2.557-0.268-5.101-0.602-7.648-0.935c-3.331-0.48-6.685-0.961-9.971-1.733
	c-3.722-0.865-7.41-1.837-11.085-2.893c-3.51-1.008-6.947-2.241-10.35-3.533c-1.623-0.616-3.225-1.245-4.859-1.825
	c-1.144-0.397-2.31-0.741-3.472-1.096c0.547-2.657,1.225-5.284,2.127-7.845c0.154-0.34,0.322-0.668,0.479-1.005
	c0.942-0.918,1.892-1.824,2.831-2.751c2.075-2.039,4.149-4.078,6.011-6.306c2.039-2.442,3.865-5.015,5.429-7.778
	c0.57-1.02,1.057-2.11,1.53-3.177c0.713-1.589,1.423-3.177,2.004-4.802c0.004-0.009,0.005-0.019,0.008-0.028
	c2.417,3.297,5.435,6.525,9.779,5.599c2.596-0.545,4.943-2.004,6.792-3.877c0.855-0.865,1.423-1.968,1.909-3.071
	c0.58-1.327,1.127-2.703,1.447-4.125c0.486-2.11,1.031-4.233,1.34-6.39c0.378-2.668,0.781-5.312,1.056-7.991
	c0.191-1.759,0.332-3.526,0.539-5.289c0.368-2.638,0.762-5.254,1.31-7.86c1.078-5.134,2.394-10.267,2.667-15.519
	c0.178-3.307-0.439-6.782-1.446-9.912c-1.162-3.675-3.261-6.746-5.763-9.627c-3.197-3.67-7.215-6.499-10.368-10.224
	c-0.794-1.119-1.5-2.268-2.096-3.505c-0.475-1.358-0.822-2.72-1.058-4.137c-0.045-0.52-0.037-1.043-0.054-1.564
	c0.283-0.099,0.561-0.222,0.823-0.376C269.158,154.898,269.686,154.131,270.128,153.188z M350.802,271.027
	c0.06-0.04,0.121-0.079,0.18-0.119c0.272,0.069,0.538,0.145,0.806,0.233c0.066,0.038,0.129,0.076,0.194,0.116
	c0.045,0.044,0.09,0.089,0.135,0.134c0.157,0.261,0.301,0.521,0.436,0.79c0.267,0.835,0.46,1.673,0.617,2.534
	c0.247,2.65,0.187,5.274,0.046,7.929c-0.177,3.26-0.558,6.687,0.687,9.793c0.949,2.395,2.585,4.114,4.968,5.086
	c2.419,0.995,4.92,0.783,7.326-0.119c4.849-1.801,8.31-6.141,11.275-10.172c3.935-5.346,5.299-11.796,6.568-18.151
	c0.896-4.465,1.446-9.016,3.065-13.281c0.544-1.168,1.18-2.254,1.911-3.304c0.34-0.401,0.695-0.781,1.083-1.134
	c0.163-0.102,0.326-0.197,0.494-0.287c0.123,0,0.246,0.002,0.369,0.008c0.056,0.014,0.111,0.03,0.166,0.047
	c0.333,0.178,0.654,0.369,0.968,0.576c0.364,0.325,0.701,0.66,1.035,1.024c0.396,0.567,0.751,1.147,1.061,1.764
	c0.331,0.995,0.556,1.995,0.741,3.027c0.301,2.654,0.381,5.335,0.37,8.004c0,2.766-0.04,5.533-0.357,8.29
	c-1.018,6.198-3.307,12.082-5.001,18.113c-0.628,2.206,0.379,4.624,2.348,5.774c1.173,0.688,2.619,0.877,3.935,0.509
	c1.151-0.32,2.562-1.197,3.059-2.348c0.722-1.66,1.316-3.272,1.779-5.003c0.356-1.292,0.7-2.585,1.043-3.877
	c0.826-3.117,1.576-6.242,2.073-9.421c0.603,0.959,1.174,1.937,1.677,2.958c0.778,2.114,1.206,4.278,1.592,6.493
	c0.47,4.348,0.629,8.696,0.191,13.055c-0.472,2.82-1.3,5.503-2.329,8.181c-0.706,1.623-1.422,3.241-2.071,4.896
	c-0.664,1.683-1.019,3.439-1.34,5.216c-0.678,3.771-1.684,7.36-3.024,10.938c-1.009,2.147-2.127,4.209-3.414,6.216
	c-1.395,2.184-2.888,4.298-4.417,6.389c-2.989,3.761-6.057,7.465-9.454,10.873c-3.682,3.672-7.581,7.037-11.672,10.241
	c-0.455,0.345-0.916,0.682-1.376,1.025c-0.051-1.29-0.136-2.578-0.22-3.867c-0.118-1.921-0.356-3.865-0.628-5.774
	c-0.416-3.034-0.818-6.07-1.447-9.058c-1.221-5.833-3.177-11.476-5.252-17.061c-1.992-5.394-4.766-10.669-8.88-14.76
	c-2.135-2.11-4.351-4.031-6.758-5.821c-1.827-1.363-3.874-2.462-6.013-3.342c0.006-0.104,0.031-0.202,0.03-0.307
	c-0.03-2.222,0.143-4.408,0.411-6.605c1.054-6.409,2.432-12.79,4.828-18.857c0.585-1.268,1.253-2.469,2.037-3.631
	C347.895,273.501,349.316,272.232,350.802,271.027z M350.348,271.095c0.164-0.09,0.332-0.162,0.507-0.219
	c0.002,0,0.005,0.001,0.008,0.001C350.689,270.951,350.517,271.023,350.348,271.095z M351.617,270.934
	c0.001,0.001,0.002,0.001,0.002,0.001c-0.131-0.014-0.264-0.031-0.395-0.047C351.355,270.898,351.486,270.913,351.617,270.934z
	 M351.622,270.936c0.014,0.001,0.027,0.004,0.041,0.006c-0.013-0.001-0.025-0.002-0.039-0.004L351.622,270.936z M361.504,289.721
	c0.156,0.02,0.311,0.039,0.466,0.059l0.001,0.001C361.815,289.769,361.659,289.751,361.504,289.721z M356.194,230.549
	c-2.876-1.482-5.611-3.284-8.22-5.194c-3.474-2.744-6.771-5.718-9.614-9.114c-0.987-1.424-1.894-2.88-2.747-4.377
	c-1.683-2.92-3.397-5.809-4.768-8.882c-1.576-3.881-2.842-7.818-3.934-11.853c-0.952-3.531-1.532-7.175-2.067-10.779
	c-0.249-2.283-0.459-4.554-0.648-6.826c-0.201-2.525-0.214-5.063-0.272-7.599c-0.121-4.796,0.369-9.602,0.968-14.362
	c0.647-3.274,1.33-6.525,2.28-9.728c1.214-4.066,2.497-8.134,4.101-12.071c2.326-5.255,5.434-10.254,8.886-14.85
	c1.42-1.804,2.916-3.585,4.585-5.147c0.995-0.936,1.992-1.874,2.987-2.81c1.395-1.305,2.911-2.487,4.38-3.699
	c1.113-0.817,2.222-1.642,3.338-2.466c1.221-0.901,2.537-1.695,3.817-2.537c2.312-1.506,4.695-2.929,7.089-4.316
	c2.163-1.257,4.323-2.537,6.531-3.718c-0.204,0.584-0.415,1.169-0.566,1.749c-0.499,1.885-0.676,3.889-0.688,5.833
	c-0.012,2.098,0.771,3.972,1.98,5.643c1.044,1.435,2.3,2.549,3.817,3.498c1.909,1.186,4.339,1.481,6.532,1.457
	c0.872-0.013,1.754-0.108,2.634-0.257c0.018,1.534,0.301,3.086,0.626,4.584c0.369,1.683,1.257,3.249,2.265,4.624
	c1.138,1.541,2.454,2.668,3.972,3.818c2.478,1.861,5.547,2.513,8.548,2.869c1.331,0.167,2.645,0.13,3.952-0.021
	c0.161,1.129,0.33,2.255,0.541,3.376c0.368,1.992,1.15,3.889,2.027,5.69c0.842,1.719,2.157,3.272,3.51,4.588
	c1.612,1.553,3.521,2.419,5.56,3.26c1.696,0.688,3.592,0.865,5.394,1.056c1.885,0.201,3.842-0.096,5.68-0.498
	c0.509-0.115,1.013-0.252,1.514-0.409c0.252,1.059,0.605,2.084,1.105,3.124c1.352,2.833,3.486,5.181,6.319,6.579
	c1.329,0.664,2.703,1.103,4.173,1.304c1.009,0.154,1.897,0.249,2.906,0.226c0.972-0.024,1.944-0.238,2.904-0.403
	c1.813-0.32,3.592-1.292,5.205-2.145c0.851-0.452,1.654-1,2.435-1.576c0.428,0.943,0.949,1.848,1.501,2.68
	c0.534,0.806,1.186,1.552,1.791,2.3c0.794,0.96,1.874,1.66,2.845,2.395c0.877,0.664,1.896,1.197,2.869,1.719
	c0.713,0.379,1.506,0.735,2.253,1.008c1.174,0.415,2.441,0.521,3.687,0.498c1.056-0.012,2.122-0.238,3.166-0.403
	c0.505-0.079,0.995-0.232,1.478-0.411c-0.071,1.138-0.132,2.275-0.235,3.415c-0.271,2.995-0.665,5.98-1.03,8.964
	c-0.714,4.649-1.904,9.165-3.203,13.68c-1.284,4.528-2.945,8.901-4.747,13.237c-0.002,0.006-0.005,0.012-0.007,0.018
	c0.002-0.005,0.004-0.009,0.006-0.014c-0.005,0.009-0.008,0.02-0.013,0.03c-0.02,0.047-0.04,0.096-0.059,0.143
	c0.014-0.034,0.027-0.07,0.041-0.104c-0.222,0.528-0.447,1.059-0.67,1.591c0.022-0.054,0.045-0.109,0.067-0.164
	c-1.601,3.783-3.45,7.458-5.549,10.99c-1.078,1.826-2.145,3.663-3.378,5.383c-1.182,1.645-2.391,3.264-3.612,4.87
	c-1.358,1.697-2.69,3.452-4.176,5.052c-0.831,0.877-1.637,1.778-2.514,2.621c-0.631,0.596-1.279,1.163-1.944,1.719
	c-2.701,1.875-5.516,3.526-8.395,5.122c-1.541,0.853-3.177,1.553-4.79,2.252c-1.188,0.518-2.376,1.03-3.563,1.539
	c-4.335,1.707-8.881,2.852-13.426,3.844c-2.458,0.537-4.915,1.051-7.378,1.533c-0.896-0.139-1.793-0.271-2.701-0.352
	c-1.08-0.093-2.167-0.124-3.251-0.154c-2.416-0.417-4.828-0.865-7.251-1.258c-3.337-0.533-6.686-1.033-10.035-1.483
	c-0.351-0.052-0.69-0.136-1.038-0.196c-1.331-0.332-2.627-0.837-3.946-1.261c-2.241-0.712-4.53-1.268-6.771-1.968
	c-1.946-0.598-3.868-1.258-5.755-2.014C362.365,233.604,359.245,232.121,356.194,230.549z M387.632,83.959
	c3.546-0.807,7.104-1.615,10.695-2.206c-0.058,0.007-0.116,0.015-0.174,0.022c-0.148,0.021-0.296,0.04-0.444,0.06
	c0.123-0.018,0.247-0.034,0.37-0.051c-0.012,0.001-0.025,0.004-0.035,0.005c0.018-0.002,0.035-0.005,0.053-0.007
	c0.07-0.009,0.138-0.019,0.208-0.028c-0.037,0.005-0.073,0.011-0.111,0.017c0.056-0.007,0.11-0.014,0.165-0.021
	c0.024-0.004,0.047-0.008,0.072-0.012c0.271-0.037,0.54-0.074,0.811-0.113c-0.273,0.04-0.541,0.08-0.812,0.117
	c3.303-0.404,6.667-0.29,9.987-0.152c3.312,0.135,6.592,0.461,9.881,0.848c4.637,0.693,9.183,1.82,13.675,3.195
	c2.562,0.783,5.122,1.553,7.695,2.277c2.156,0.622,4.279,1.287,6.368,2.102c1.916,0.924,3.725,1.959,5.499,3.127
	c1.429,0.931,2.804,1.954,4.162,2.989c1.539,1.29,3.039,2.606,4.374,4.101c1.389,1.562,2.729,3.162,4.028,4.793
	c1.155,1.545,2.251,3.13,3.121,4.857c0.963,1.895,1.836,3.818,2.692,5.755c1.097,2.671,2.056,5.378,2.785,8.175
	c0.764,2.898,1.389,5.818,1.937,8.748c0.304,2.923,0.545,5.839,0.587,8.786c0.019,1.274-0.028,2.554-0.035,3.832
	c-0.571-0.02-1.144,0.046-1.692,0.242c-0.02,0.009-0.038,0.018-0.058,0.026c-0.732,0.061-1.456,0.156-2.171,0.365
	c-0.948,0.271-1.843,0.61-2.785,0.869c-0.755-0.163-1.493-0.372-2.222-0.626c-0.509-0.26-0.992-0.543-1.462-0.861
	c-0.408-0.364-0.785-0.736-1.15-1.138c-0.279-0.423-0.528-0.851-0.764-1.305c-0.196-0.596-0.356-1.189-0.479-1.806
	c-0.027-0.428-0.04-0.853-0.04-1.285c0.012-2.845-2.727-4.753-5.394-4.114c-0.842,0.201-1.6,0.723-2.337,1.162
	c-0.651,0.391-1.339,0.759-2.002,1.138c-1.979,1.142-3.919,2.312-5.974,3.293c-0.59,0.206-1.171,0.371-1.775,0.499
	c-0.375,0.018-0.747,0.021-1.125,0.008c-0.414-0.091-0.816-0.201-1.216-0.336c-0.274-0.149-0.54-0.304-0.799-0.472
	c-0.073-0.072-0.144-0.145-0.214-0.22c-0.301-0.447-0.579-0.904-0.837-1.384c-0.173-0.502-0.309-1.005-0.416-1.527
	c-0.083-0.923-0.129-1.849-0.175-2.78c-0.072-1.541-0.558-3.51-1.801-4.553c-0.427-0.344-0.853-0.688-1.292-1.008
	c-0.937-0.545-1.921-0.712-2.988-0.712c-1.404,0.011-2.681,0.618-3.911,1.247c-1.71,0.694-3.426,1.351-5.238,1.726
	c-0.999,0.076-1.987,0.069-2.989-0.009c-0.837-0.162-1.645-0.375-2.45-0.65c-0.43-0.223-0.837-0.459-1.248-0.722
	c-0.576-0.498-1.103-1.025-1.605-1.602c-0.508-0.751-0.941-1.527-1.331-2.339c-0.428-1.183-0.773-2.377-1.06-3.59
	c-0.344-1.435-0.498-3.118-1.268-4.41c-0.817-1.364-1.838-2.193-3.355-2.656c-0.903-0.283-1.812-0.065-2.712,0.113
	c-1.368,0.063-2.723,0.004-4.089-0.129c-1.033-0.178-2.033-0.409-3.021-0.753c-0.747-0.364-1.446-0.786-2.135-1.257
	c-0.53-0.466-1.009-0.95-1.467-1.478c-0.267-0.414-0.508-0.825-0.729-1.257c-0.271-0.843-0.473-1.688-0.621-2.551
	c-0.052-0.697-0.067-1.377-0.046-2.092c0.024-0.889,0.154-1.744,0.083-2.632c-0.095-1.127-0.45-2.277-1.28-3.106
	c-0.688-0.676-1.98-1.316-3-1.197c-0.722,0.083-1.352,0.189-2.027,0.427c-0.32,0.119-0.641,0.214-0.961,0.32
	c-1.147,0.368-2.311,0.655-3.487,0.864c-0.715,0.061-1.416,0.065-2.137,0.018c-0.238-0.051-0.47-0.115-0.702-0.19
	c-0.361-0.177-0.704-0.368-1.046-0.591c-0.37-0.338-0.707-0.688-1.03-1.065c-0.182-0.265-0.346-0.541-0.493-0.823
	c-0.015-0.051-0.03-0.104-0.044-0.156c-0.069-1.074-0.034-2.129,0.072-3.201c0.178-1.009,0.415-1.979,0.752-2.946
	c0.396-0.819,0.845-1.573,1.369-2.322c0.478-0.589,0.972-1.161,1.459-1.741c0.663-0.774,0.973-1.726,0.922-2.658
	c0.382-0.15,0.764-0.293,1.147-0.441C385.431,84.518,386.524,84.209,387.632,83.959z M378.799,98.664
	c-0.045-0.106-0.084-0.216-0.121-0.325c0.053,0.123,0.105,0.247,0.158,0.372l0,0c0.039,0.097,0.08,0.193,0.121,0.29
	C378.899,98.889,378.846,98.777,378.799,98.664c0.011,0.013,0.02,0.025,0.03,0.038C378.819,98.689,378.809,98.676,378.799,98.664z
	 M465.636,197.207c-0.13,0.313-0.264,0.624-0.396,0.935c0.069-0.157,0.134-0.318,0.2-0.478
	C465.506,197.512,465.571,197.359,465.636,197.207z M391.794,251.38c-0.051-0.022-0.102-0.044-0.152-0.065l-0.001-0.001h-0.001
	C391.692,251.333,391.744,251.356,391.794,251.38z M391.637,251.312c-0.012-0.005-0.025-0.009-0.035-0.015
	C391.614,251.301,391.625,251.306,391.637,251.312L391.637,251.312z M266.594,347.617c-0.065-0.111-0.102-0.242-0.175-0.344
	c-0.13-0.177-0.261-0.344-0.379-0.509c-1.066-1.4-1.103-1.447-2.513-2.513c-0.346-0.262-0.696-0.512-1.046-0.764
	c-1.857-1.5-3.618-3.115-5.415-4.701c-0.913-0.806-1.838-1.589-2.692-2.466c-0.853-0.864-1.641-1.78-2.415-2.718
	c-1.447-1.978-2.792-4.005-4.046-6.115c-1.157-1.941-2.098-4.012-3.015-6.081c-1.297-3.319-2.445-6.636-3.28-10.115
	c-0.758-3.136-1.284-6.349-1.745-9.552c-0.616-5.64-0.787-11.25-0.311-16.901c0.058-0.41,0.125-0.819,0.186-1.231
	c1.045,0.332,2.099,0.643,3.123,1.024c1.707,0.641,3.391,1.351,5.086,2.015c3.473,1.363,6.995,2.596,10.564,3.651
	c3.675,1.091,7.374,2.145,11.12,2.94c3.783,0.783,7.564,1.41,11.394,1.933c3.854,0.521,7.718,1.067,11.596,1.388
	c3.793,0.32,7.6,0.651,11.393,0.948c7.41,0.569,14.902,0.439,22.324,0.403c0.452,0,0.907-0.006,1.358-0.009
	c-0.142,1.349-0.23,2.701-0.274,4.056c-3.979,0.033-7.916,0.901-11.609,2.582c-4.007,1.826-7.386,4.54-10.445,7.683
	c-1.435,1.47-2.715,3.082-4.008,4.672c-1.41,1.731-2.857,3.414-4.315,5.098c-5.406,6.179-11.551,11.641-17.889,16.831
	C275.096,341.909,270.909,344.867,266.594,347.617z M152.082,274.601c-0.713-2.904-2.229-5.679-4.044-8.05
	c-0.794-1.043-1.623-2.039-2.549-2.975c-1.257-1.292-2.785-2.336-4.232-3.391c-1.457-1.067-3.012-1.992-4.589-2.869
	c-8.082-4.429-16.664-7.998-24.124-13.465c-2.645-2.118-5.07-4.435-7.226-7.055c-1.641-2.231-3.02-4.584-4.186-7.11
	c-0.935-2.372-1.653-4.777-2.109-7.278c-0.174-2.032-0.08-4.043,0.121-6.066c0.697-4.369,2.039-8.497,3.708-12.595
	c2.244-5.072,4.941-9.848,8.267-14.301c4.732-5.929,10.147-11.344,15.39-16.814c3.982-4.15,8.026-8.276,12.152-12.295
	c2.216-2.169,4.422-4.339,6.591-6.544c4.695-4.766,9.01-9.853,12.543-15.567c1.168-1.89,2.15-3.88,3.019-5.919
	c1.332,1.44,2.777,2.783,4.28,4.005c2.939,2.407,6.023,4.493,9.33,6.354c1.363,0.759,2.751,1.494,4.125,2.218
	c0.771,0.403,1.553,0.771,2.336,1.15c2.489,1.221,5.004,1.944,7.765,2.193c3.984,0.356,7.908-0.368,11.632-1.754
	c1.832-0.68,3.621-1.493,5.409-2.286c2.694-1.083,5.445-2.067,8.297-2.616c1.253-0.077,2.481-0.028,3.727,0.076
	c0.736,0.134,1.461,0.296,2.179,0.521c0.444,0.234,0.874,0.486,1.296,0.76c1.066,0.935,2.047,1.956,2.968,3.044
	c1.718,2.463,3.155,5.129,4.721,7.685c0.826,1.363,1.552,2.772,2.342,4.148c0.178,0.973,0.348,1.947,0.508,2.923
	c0.214,1.327,0.426,2.656,0.664,3.972c0.415,2.348,1.127,4.493,2.086,6.674c0.937,2.098,2.775,3.854,4.636,5.157
	c1.634,1.138,3.445,1.949,5.101,3.049c0.388,0.345,0.758,0.7,1.116,1.079c0.43,0.661,0.806,1.342,1.16,2.058
	c1.653,4.397,2.27,9.206,3.138,13.816c0.738,3.874,1.248,7.79,1.8,11.687c0.194,1.487,0.387,2.974,0.59,4.461
	c0.615,4.547,1.292,9.085,2.019,13.621c0.253,1.544,0.605,3.08,1.013,4.604c-0.147,0.177-0.309,0.34-0.426,0.543
	c-0.119,0.189-0.226,0.356-0.357,0.533c0.117-0.149,0.231-0.297,0.345-0.443c-0.738,1.007-1.277,2.077-1.887,3.182
	c-0.83,1.494-1.731,2.928-2.537,4.422c-1.031,1.909-2.039,3.829-3.105,5.714c-1.06,1.852-2.265,3.617-3.501,5.346
	c-1.973,2.423-4.082,4.703-6.221,6.982c-2.489,2.644-4.955,5.312-7.564,7.837c-4.648,4.492-9.494,8.816-14.569,12.815
	c-2.339,1.721-4.669,3.495-7.15,5.004c-1.457,0.889-2.904,1.767-4.409,2.562c-1.339,0.723-2.708,1.358-4.097,1.995
	c-3.227,1.306-6.485,2.527-9.763,3.696c-4.193,1.501-8.473,2.968-12.879,3.69c-5.964,0.639-12.08,0.231-18.023-0.453
	c-2.566-0.378-5.09-0.902-7.602-1.493c0.89-3.422,1.577-6.87,1.72-10.447C153.138,279.794,152.699,277.115,152.082,274.601z
	 M167.146,398.556c-4.118-3.313-8.126-6.855-11.491-10.944c-4.028-5.508-6.745-11.894-9.514-18.095
	c-0.722-1.624-1.447-3.26-2.216-4.872c-0.794-1.648-1.791-3.225-2.976-4.623c-1.34-1.565-2.917-2.822-4.623-3.948
	c-3.521-2.336-8.039-2.857-12.165-2.751c-2.179,0.063-4.365,0.196-6.547,0.046c-1.378-0.297-2.684-0.733-4.001-1.245
	c-3.692-1.629-7.389-3.29-10.689-5.637c-4.208-3.394-7.967-7.445-11.35-11.661c-1.96-2.642-3.676-5.441-5.185-8.369
	c-0.502-0.994-0.943-2.034-1.391-3.066c-1.093-2.749-2.202-5.48-3.292-8.221c-0.734-1.837-1.577-3.628-2.585-5.335
	c-1.233-2.063-2.822-3.948-4.481-5.69c-1.896-1.992-4.018-3.699-6.166-5.417c-5.207-4.146-10.662-7.977-15.991-11.962
	c-1.785-1.428-3.484-2.906-4.986-4.646c-0.872-1.283-1.623-2.617-2.291-4.018c-1.926-5.123-2.502-10.596-3.525-15.95
	c-0.605-3.177-1.72-6.164-3-9.129c-1.233-2.881-3.201-5.346-5.134-7.789c-1.98-2.489-4.162-4.861-6.225-7.291
	c-0.961-1.118-1.863-2.294-2.771-3.462c-2.972-4.169-5.907-8.302-8.057-12.96c-1.002-2.638-1.658-5.324-2.115-8.108
	c-0.616-5.759-0.413-11.556-0.312-17.343c0.072-3.876,0.035-7.753-0.035-11.63c-0.083-3.675-0.403-7.363-0.675-11.037
	c-0.13-1.826-0.177-3.651-0.261-5.478c-0.157-3.698-0.281-7.384,0.074-11.071c0.915-5.64,2.877-10.958,4.786-16.328
	c1.352-3.77,2.632-7.576,3.913-11.381c1.161-3.486,2.182-7.031,3.39-10.504c1.297-3.697,2.647-7.351,4.071-11.004
	c1.889-4.188,3.798-8.365,6.065-12.364c1.364-2.395,2.727-4.766,4.15-7.125c1.205-1.974,2.525-3.843,3.862-5.726
	c1.849-2.248,3.692-4.497,5.564-6.734c1.944-2.324,4.078-4.493,6.213-6.65c4.173-4.231,8.648-8.084,13.331-11.747
	c2.222-1.621,4.446-3.24,6.703-4.815c2.42-1.683,4.921-3.201,7.434-4.742c4.471-2.741,9.305-4.887,14.127-6.96
	c5-2.007,10.004-3.987,15.156-5.584c3.011-0.948,6.023-1.813,9.069-2.643c2.466-0.669,5.007-1.063,7.532-1.444
	c2.523-0.223,5.012-0.361,7.537-0.441c2.404-0.077,4.83,0.207,7.217,0.457c3.784,0.608,7.519,1.343,11.254,2.245
	c4.584,1.097,9.18,2.218,13.595,3.922c4.735,2.135,8.991,5.157,13.354,7.956c3.073,1.968,6.043,4.028,8.948,6.201
	c2.962,2.395,5.922,4.83,8.693,7.445c1.601,1.506,3.188,3.011,4.718,4.588c1.275,1.338,2.452,2.758,3.63,4.18
	c1.251,1.739,2.475,3.478,3.625,5.281c1.15,1.79,2.241,3.628,3.402,5.417c2.857,4.398,5.81,8.701,9.284,12.661
	c3.142,3.604,6.579,6.912,10.089,10.16c4.598,4.242,9.793,7.919,13.809,12.746c2.075,2.941,3.514,6.157,4.994,9.425
	c-0.059-0.142-0.119-0.284-0.178-0.426c2.069,4.891,4.259,9.827,5.155,15.071c0.377,3.627,0.241,7.225,0.074,10.855
	c-0.072,1.767-0.167,3.521-0.155,5.287c0.035,2.906,0.486,5.833,1.316,8.608c1.637,5.478,5.491,9.709,9.556,13.539
	c2.311,2.175,4.62,4.277,6.646,6.728c0.752,1.057,1.401,2.134,1.98,3.305c0.69,1.79,1.174,3.602,1.494,5.494
	c0.19,2.158,0.124,4.258-0.124,6.417c-0.637,4.388-1.632,8.728-2.383,13.1c-0.566,3.337-0.937,6.718-1.372,10.078
	c-0.696,4.855-1.55,9.699-3.3,14.296c-0.32,0.692-0.661,1.356-1.058,2.007c-0.174,0.178-0.355,0.349-0.541,0.515
	c-0.07,0.046-0.137,0.092-0.206,0.137c-1.189-1.153-2.265-2.424-3.302-3.706c-0.976-1.34-1.81-2.734-2.511-4.231
	c-1.358-3.562-2.223-7.344-2.875-11.106c-0.428-2.454-0.829-4.908-1.177-7.378c-0.71-5.564-1.372-11.185-1.846-16.771
	c-0.236-2.715-0.486-5.417-0.747-8.121c-0.189-2.075-0.521-4.149-0.972-6.177c-0.416-1.849-1.15-3.604-1.933-5.323
	c-0.76-1.696-2.206-3.201-3.557-4.458c-1.195-1.104-2.572-2.017-3.895-2.975c-0.411-0.356-0.788-0.723-1.151-1.122
	c-0.056-0.092-0.109-0.184-0.16-0.277c-0.303-0.903-0.517-1.811-0.676-2.754c-0.515-4.473-0.664-8.972-1.375-13.419
	c-0.391-2.454-0.913-4.813-1.825-7.124c-0.616-1.565-1.246-3.13-2.004-4.624c-0.546-1.073-1.325-2.062-2.097-3.001
	c-1.115-1.494-2.316-2.624-4.177-3.168c-0.904-1.017-1.999-1.875-3.156-2.554c-1.375-0.818-2.952-1.304-4.469-1.766
	c-1.327-0.415-2.68-0.853-4.054-1.067c-0.702-0.103-1.374-0.169-2.069-0.169c-0.186,0-0.374,0.005-0.564,0.015
	c-0.765,0.039-1.535,0.161-2.296,0.293c-2.814-0.173-5.609,0.059-8.361,0.862c-4.565,1.313-8.851,3.302-13.171,5.251
	c-0.074,0.032-0.151,0.064-0.227,0.096c-1.281,0.534-2.628,0.853-3.991,1.095c-1.052,0.098-2.101,0.139-3.16,0.098
	c-2.722-0.571-5.331-1.762-7.901-2.831c-2.752-1.225-5.394-2.622-7.851-4.383c-1.922-1.595-3.675-3.352-5.576-4.98
	c-0.683-0.586-1.455-1.005-2.262-1.26c0.457-2.606,0.68-5.252,0.583-7.899c-0.284-7.741-2.714-15.057-6.247-21.874
	c-0.628-1.221-1.339-2.383-2.039-3.569c-1.316-2.193-4.209-2.988-6.451-1.683c-2.193,1.28-2.999,4.233-1.683,6.438
	c1.358,2.275,2.598,4.581,3.669,7.003c1.144,2.976,1.983,6.025,2.489,9.183c0.281,2.636,0.349,5.24,0.093,7.877
	c-0.499,2.956-1.388,5.78-2.499,8.579c-1.557,3.45-3.504,6.621-5.752,9.656c-3.474,4.317-7.426,8.082-11.492,11.835
	c-1.909,1.754-3.877,3.426-5.774,5.193c-4.542,4.185-8.975,8.477-13.315,12.887c-6.33,6.438-12.697,12.924-17.818,20.404
	c-2.346,3.426-4.209,7.149-5.844,10.954c-1.885,4.387-3.51,8.832-4.481,13.516c-0.937,4.54-1.246,9.259-0.558,13.847
	c0.664,4.339,2.252,8.406,4.173,12.33c3.675,7.529,9.971,13.468,16.8,18.127c3.236,2.193,6.722,3.995,10.196,5.773
	c6.234,3.192,12.728,5.869,18.396,10.03c0.933,0.794,1.772,1.636,2.566,2.56c0.663,0.942,1.24,1.915,1.755,2.946
	c0.395,1.109,0.684,2.222,0.897,3.375c0.139,1.638,0.128,3.257-0.025,4.897c-0.616,3.549-1.716,6.956-2.807,10.395
	c-0.357,1.103-0.7,2.216-1.057,3.319c-0.842,2.68-1.801,5.56-1.92,8.382c-0.108,2.81,0.368,5.631,1.624,8.169
	c1.352,2.751,3.473,4.92,5.975,6.663c4.224,2.923,9.195,4.482,13.421,7.41c0.814,0.679,1.565,1.396,2.286,2.181
	c0.317,0.472,0.603,0.953,0.871,1.459c0.255,0.736,0.449,1.469,0.602,2.235c0.045,1.008,0.012,1.995-0.077,2.999
	c-0.989,5.663-2.44,11.436-0.528,17.089c1.683,4.992,5.903,8.631,9.531,12.247c3.9,3.877,7.928,7.646,11.373,11.938
	c2.119,2.908,3.764,6.051,5.211,9.335c0.676,1.859,1.214,3.722,1.579,5.672c0.118,1.274,0.141,2.539,0.063,3.824
	c-0.342,1.809-0.879,3.543-1.534,5.264c-0.349,0.753-0.715,1.484-1.149,2.192c-0.031,0.032-0.061,0.064-0.092,0.097
	c-0.089,0.051-0.176,0.102-0.267,0.15c-0.403,0.121-0.807,0.225-1.215,0.313c-0.667,0.026-1.325,0.014-1.991-0.032
	c-2.37-0.468-4.655-1.199-6.895-2.084C172.116,401.7,169.563,400.316,167.146,398.556z M357.888,431.658
	c-4.268,4.588-8.75,8.986-13.278,13.314c-4.469,4.267-9.011,8.477-13.681,12.543c-3.771,3.277-7.696,6.355-11.637,9.416
	c-1.623,1.23-3.254,2.427-4.997,3.494c-1.653,1.009-3.447,1.831-5.229,2.612c-4.179,1.546-8.609,2.663-13.01,3.4
	c-3.923,0.409-7.983,0.641-11.913,0.271c-1.714-0.34-3.385-0.738-5.049-1.267c-1.467-0.474-2.894-1.03-4.31-1.61
	c-4.676-2.329-8.968-5.233-13.283-8.172c-4.589-3.106-8.998-6.461-13.539-9.615c-4.446-3.106-9.082-5.916-13.563-8.952
	c-4.462-3.024-8.785-6.232-13.08-9.491c-6.932-5.413-13.732-10.975-20.72-16.318c0.439,0.332,0.877,0.675,1.316,1.008
	c-2.784-2.17-5.449-4.487-8.083-6.842c0.34-0.257,0.681-0.517,1.026-0.798c0.712-0.582,1.541-1.791,1.993-2.442
	c0.426-0.628,0.77-1.257,1.09-1.944c1.079-2.277,1.897-4.636,2.526-7.066c1.091-4.257,0.865-8.62-0.249-12.84
	c-0.865-3.296-2.466-6.39-4.137-9.342c-2.253-3.96-4.897-7.837-8.085-11.097c-2.537-2.585-5.11-5.11-7.743-7.611
	c-3.07-2.921-6.305-5.809-9.001-9.081c-0.444-0.623-0.844-1.258-1.207-1.94c-0.164-0.463-0.301-0.928-0.415-1.415
	c-0.125-1.494-0.118-2.969,0.022-4.467c0.329-1.823,0.747-3.615,1.117-5.434c0.439-2.145,0.688-4.315,0.592-6.497
	c-0.106-2.739-0.995-5.24-2.157-7.682c-0.865-1.838-2.383-3.462-3.817-4.872c-1.518-1.494-3.331-2.751-5.109-3.901
	c-3.274-2.123-6.928-3.576-10.128-5.812c-0.507-0.442-0.982-0.898-1.439-1.392c-0.195-0.313-0.374-0.628-0.544-0.953
	c-0.134-0.42-0.246-0.838-0.34-1.267c-0.033-0.616-0.031-1.221,0.008-1.84c0.322-1.569,0.72-3.117,1.147-4.657
	c0.887,0.262,1.78,0.507,2.658,0.785c2.501,0.783,5.027,1.66,7.611,2.157c7.137,1.352,14.452,1.921,21.647,0.641
	c2.845-0.521,5.655-1.457,8.383-2.419c2.643-0.924,5.287-1.85,7.907-2.869c2.916-1.138,5.82-2.3,8.654-3.616
	c2.609-1.197,5.075-2.609,7.529-4.066c2.394-1.423,4.683-3.024,6.994-4.589c2.395-1.624,4.742-3.367,7.019-5.169
	c1.257-0.999,2.523-1.994,3.787-2.991c-0.61,2.396-1.251,4.81-1.647,7.256c-0.546,3.344-0.83,6.674-1.008,10.053
	c-0.285,5.56,0.309,11.037,1.031,16.538c0.225,1.719,0.474,3.426,0.865,5.122c0.356,1.482,0.794,2.929,1.233,4.387
	c0.949,3.154,2.348,6.235,3.746,9.212c1.174,2.525,2.728,4.861,4.352,7.102c1.801,2.513,3.734,4.92,5.939,7.102
	c0.936,0.913,1.98,1.731,2.976,2.585c0.961,0.83,1.908,1.683,2.882,2.501c1.272,1.073,2.575,2.114,3.916,3.086
	c-1.381,0.69-2.739,1.42-4.151,2.047c-3.736,1.51-7.547,2.671-11.536,3.32c-3.482,0.368-6.94,0.34-10.438-0.033
	c-1.969-0.203-3.939-0.418-5.897-0.623c-3.291-0.493-6.506-1.086-9.692-2.116c-1.127-0.368-2.241-0.735-3.368-1.103
	c-2.562-0.83-5.122-1.624-7.682-2.454c-2.337-0.747-4.897,0.853-5.525,3.142c-0.676,2.442,0.806,4.778,3.129,5.525
	c2.965,0.961,5.916,1.885,8.868,2.869c2.798,0.924,5.549,1.814,8.453,2.371c2.656,0.509,5.346,0.842,8.038,1.174
	c1.719,0.214,3.439,0.439,5.157,0.652c4.375,0.545,8.761,0.391,13.113-0.285c6.591-1.008,12.769-3.343,18.768-6.176
	c5.559-2.632,10.978-5.549,16.147-8.892c5.667-3.675,11.05-7.67,16.278-11.951c3.876-3.166,7.6-6.65,11.074-10.244
	c3.998-4.156,7.626-8.705,12.071-12.383c1.708-1.219,3.499-2.288,5.391-3.194c1.255-0.466,2.53-0.824,3.851-1.091
	c1.104-0.073,2.18-0.053,3.277,0.044c1.586,0.288,3.11,0.707,4.617,1.271c1.656,0.807,3.197,1.761,4.685,2.833
	c1.797,1.496,3.495,3.108,5.023,4.894c1.257,1.741,2.327,3.559,3.247,5.501c1.439,3.755,2.69,7.585,3.695,11.479
	c0.546,2.075,1.113,4.161,1.482,6.283c0.361,2.034,0.671,4.06,0.956,6.098c0.622,5.591,1.158,11.204,0.576,16.815
	c-0.515,3.103-1.355,6.063-2.498,8.988c-1.923,4.304-4.271,8.341-7.088,12.116c-6.136,7.61-13.68,13.792-21.347,19.801
	c-2.904,2.167-5.809,4.38-8.906,6.248c-3.544,2.145-7.114,4.233-10.776,6.164c-7.004,3.706-14.223,6.958-21.503,10.077
	c-1.527,0.616-3.069,1.215-4.497,2.04c-2.656,1.505-3.948,4.766-3.142,7.694c0.985,3.545,4.825,5.797,8.395,4.766
	c1.825-0.533,3.521-1.41,5.228-2.241c1.339-0.653,2.703-1.292,4.054-1.921c2.893-1.339,5.797-2.643,8.691-3.984
	c5.621-2.619,11.026-5.608,16.409-8.691c5.547-3.189,10.681-7.077,15.685-11.05c1.602-1.27,3.176-2.569,4.757-3.862
	c0.015,0.007,0.026,0.02,0.041,0.027c3.189,1.553,6.438,2.881,9.805,3.96c3.414,1.079,7.019,1.565,10.575,1.813
	c2.549,0.181,5.112,0.233,7.674,0.209C363.742,425.138,360.873,428.448,357.888,431.658z M405.474,369.76
	c-1.494,2.692-3.023,5.346-4.706,7.932c-1.731,2.68-3.569,5.276-5.442,7.86c-3.616,5.016-7.481,9.875-11.133,14.867
	c-0.742,1.011-1.495,2.006-2.248,3.005c-1.601,2.046-3.289,4.017-4.923,6.034c-0.197-0.073-0.392-0.155-0.6-0.203
	c-1.482-0.356-2.892-0.427-4.398-0.309c-1.707,0.13-3.426,0.165-5.146,0.154c-3.624-0.046-7.25-0.171-10.862-0.495
	c-2.489-0.402-4.936-1.017-7.341-1.762c4.712-4.666,8.939-9.789,12.325-15.51c2.193-3.711,3.96-7.741,5.383-11.821
	c0.356-1.018,0.656-2.062,0.911-3.119c0.251-0.022,0.501-0.05,0.761-0.093c1.625-0.273,2.845-1.268,4.138-2.206
	c1.208-0.877,2.43-1.742,3.64-2.609c2.608-1.862,5.134-3.817,7.647-5.773c3.411-2.649,6.63-5.564,9.764-8.552
	c0.89-0.184,1.779-0.375,2.68-0.527c2.385-0.304,4.796-0.556,7.175-0.936c2.621-0.439,5.205-0.973,7.765-1.648
	c0.993-0.262,1.991-0.513,2.985-0.77c-0.034,0.07-0.074,0.134-0.11,0.202C411.036,358.924,408.417,364.436,405.474,369.76z
	 M450.467,288.584c-2.727,5.43-5.465,10.861-8.394,16.182c-3.071,5.572-6.283,11.05-9.484,16.526
	c-3.167,5.394-6.308,10.801-9.628,16.1c-1.275,2.033-2.501,4.085-3.72,6.141c-0.433,0.204-0.861,0.416-1.277,0.615
	c-1.309,0.626-2.618,1.252-3.948,1.836c-1.627,0.673-3.265,1.294-4.92,1.898c-1.921,0.7-3.888,1.364-5.869,1.862
	c-1.129,0.278-2.272,0.474-3.408,0.703c0.658-0.751,1.319-1.498,1.952-2.271c1.956-2.395,3.948-4.979,5.466-7.67
	c3.034-5.417,4.992-11.156,6.213-17.226c0.39-1.909,0.664-3.817,1.257-5.679c0.641-1.968,1.47-3.852,2.182-5.797
	c1.861-5.157,2.454-10.883,1.874-16.326c-0.499-4.584-1.197-9.165-2.466-13.614c0.189-0.001,0.377,0.013,0.566,0.008
	c1.056-0.024,2.098-0.142,3.142-0.238c1.98-0.177,3.971-0.604,5.916-1.008c3.901-0.794,7.824-1.423,11.725-2.157
	c3.781-0.712,7.516-1.601,11.192-2.727c3.311-1.024,6.473-2.437,9.602-3.917C455.914,277.478,453.256,283.049,450.467,288.584z
	 M499.348,144.414c-0.927,6.348-2.563,12.562-3.948,18.82c-1.41,6.461-2.728,12.934-4.292,19.36
	c-1.505,6.213-3.545,12.318-5.442,18.412c-1.801,5.763-3.759,11.488-5.738,17.191c-2.216,6.397-4.501,12.738-6.991,19.024
	c-2.385,5.508-4.806,11.01-7.166,16.543c-1.171,2.748-2.29,5.523-3.395,8.303c-0.017,0.006-0.032,0.002-0.047,0.008
	c-0.668,0.245-1.306,0.534-1.95,0.822c-1.329,0.53-2.677,0.989-4.025,1.479c-1.623,0.592-3.225,1.233-4.837,1.897
	c-3.331,1.351-6.733,2.667-10.184,3.71c-3.663,1.103-7.374,1.98-11.121,2.798c-3.624,0.794-7.215,1.716-10.853,2.39
	c-0.726,0.092-1.457,0.18-2.189,0.206c-1.113,0.035-2.205,0.024-3.319-0.012c-0.106-0.002-0.196,0.05-0.299,0.058
	c-1.911-3.311-4.364-6.349-6.743-9.298c-0.582-0.721-1.41-1.112-2.297-1.247c-0.124-2.705-0.37-5.396-0.751-8.076
	c0.934-0.02,1.868-0.074,2.801-0.154c2.193-0.189,4.387-0.462,6.569-0.818c1.778-0.285,3.545-0.641,5.311-1.032
	c1.719-0.368,3.378-1.032,5.039-1.624c2.299-0.818,4.553-1.742,6.758-2.798c1.813-0.877,3.579-1.897,5.358-2.845
	c1.707-0.924,3.368-1.933,5.016-2.976c1.623-1.032,3.141-2.216,4.682-3.378c1.744-1.316,3.437-2.668,5.098-4.09
	c1.47-1.268,2.703-2.869,3.914-4.375c2.68-3.331,5.181-6.805,7.682-10.267c2.086-2.906,4.031-5.916,5.761-9.046
	c0.961-1.742,1.968-3.486,2.822-5.287c0.863-1.832,1.681-3.677,2.474-5.549c0.31-0.731,0.618-1.461,0.927-2.192
	c1.531-3.637,2.993-7.284,4.188-11.051c1.197-3.793,2.252-7.647,3.177-11.524c0.902-3.783,1.363-7.67,1.909-11.524
	c0.604-4.196,1.09-8.406,1.292-12.65c0.189-4.208,0.379-8.417,0.439-12.626c0.059-4.422-0.356-8.809-1.091-13.16
	c-0.653-3.96-1.766-7.861-3.034-11.654c-0.759-2.252-1.754-4.446-2.703-6.627c-0.759-1.766-1.564-3.51-2.407-5.252
	c-1.801-3.759-4.553-7.102-7.089-10.374c-1.209-1.553-2.562-2.976-3.948-4.363c-1.376-1.388-2.976-2.573-4.53-3.77
	c-1.908-1.482-3.852-2.857-5.916-4.125c-2.014-1.221-4.267-2.111-6.473-2.929c-1.779-0.653-3.617-1.174-5.442-1.707
	c-1.921-0.569-3.817-1.162-5.714-1.778c-3.651-1.186-7.292-2.454-11.062-3.225c-4.137-0.853-8.452-1.138-12.673-1.245
	c-0.197-0.005-0.395-0.007-0.593-0.007c-1.592,0-3.219,0.16-4.79,0.339c-2.218,0.261-4.434,0.569-6.64,0.961
	c-3.719,0.66-7.295,1.801-10.855,3.034c-2.161,0.571-4.309,1.161-6.452,1.81c-2.324,0.712-4.576,1.589-6.829,2.501
	c-4.729,1.921-9.306,4.149-13.799,6.556c-2.193,1.174-4.352,2.419-6.51,3.64c-1.872,1.056-3.746,2.206-5.5,3.449
	c-2.336,1.648-4.636,3.307-6.865,5.11c-1.992,1.589-3.854,3.26-5.738,4.979c-3.356,3.071-6.059,6.805-8.608,10.552
	c-1.41,2.075-2.702,4.209-4.007,6.367c-1.553,2.572-2.703,5.429-3.817,8.217c-0.652,1.612-1.197,3.248-1.754,4.896
	c-0.818,2.43-1.577,4.884-2.312,7.35c-0.664,2.205-1.15,4.469-1.6,6.734c-0.511,2.562-0.926,5.181-1.151,7.778
	c-0.214,2.43-0.462,4.872-0.509,7.315c-0.035,2.501-0.025,4.979,0.047,7.481c0.119,5.098,0.783,10.185,1.577,15.211
	c0.735,4.695,1.885,9.366,3.378,13.87c1.078,3.26,2.324,6.474,3.759,9.591c1.4,3.034,3.141,5.964,4.849,8.821
	c1.363,2.277,2.786,4.481,4.553,6.473c1.612,1.801,3.32,3.462,5.122,5.075c1.636,1.481,3.331,2.893,5.05,4.267
	c2.075,1.66,4.162,3.32,6.367,4.802c1.896,1.292,3.923,2.395,5.928,3.51c2.015,1.115,4.019,2.241,6.083,3.272
	c2.134,1.067,4.351,2.027,6.556,2.929c1.944,0.794,3.913,1.506,5.964,1.921c2.063,0.415,4.173,0.641,6.26,0.806
	c0.181,0.014,0.369,0.006,0.551,0.014c-1.07,1.995-1.902,4.111-2.544,6.316c-0.842,2.916-1.292,5.987-1.861,8.974
	c-0.533,2.762-1.079,5.537-1.779,8.264c-0.366,1.443-0.831,2.846-1.374,4.228c-0.937,2.025-2.079,3.872-3.411,5.666
	c-1.343,1.663-2.78,3.209-4.414,4.596c-0.54,0.372-1.084,0.697-1.667,0.992c-0.401,0.134-0.797,0.249-1.207,0.348
	c0,0-0.005,0-0.007,0c-0.106-0.027-0.212-0.056-0.319-0.084c-0.02-0.02-0.041-0.039-0.061-0.059
	c-0.008-0.012-0.015-0.025-0.022-0.037c-0.099-0.32-0.18-0.638-0.248-0.965c-0.187-2.76,0.217-5.521,0.327-8.283
	c0.072-2.134,0.072-4.233-0.142-6.367c-0.272-2.833-0.948-5.69-2.619-8.038c-1.696-2.371-4.258-3.876-7.068-4.54
	c-1.442-0.336-2.88-0.268-4.277,0.04c-0.355-0.355-0.761-0.661-1.188-0.94c-0.52-0.353-1.034-0.726-1.543-1.109
	c0.008,0.006,0.017,0.012,0.025,0.018c-2.727-2.134-5.205-4.564-7.659-6.994c-1.305-1.292-2.573-2.632-3.854-3.96
	c-1.117-1.17-2.14-2.407-3.158-3.65c-1.656-2.275-3.277-4.584-4.726-6.997c-1.565-2.619-3.095-5.264-4.611-7.92
	c-1.482-2.621-2.976-5.24-4.41-7.896c-1.444-2.7-2.783-5.446-4.052-8.239c-2.434-5.85-4.838-11.714-7.045-17.642
	c-2.336-6.26-4.209-12.674-5.869-19.147c-0.852-3.307-1.291-6.722-1.757-10.101c-0.364-3.149-0.682-6.287-0.957-9.436
	c-0.261-3.177-0.178-6.39-0.072-9.568c0.108-3.368,0.214-6.746,0.225-10.114c0.012-3.414,0.035-6.817,0.214-10.22
	c0.119-2.324,0.344-4.648,0.558-6.971c0.191-2.123,0.374-4.235,0.625-6.337c0.134-0.788,0.273-1.578,0.405-2.376
	c0.181-1.08,0.479-2.135,0.83-3.174c1.649-1.921,3.329-3.815,5.098-5.623c3.059-3.106,6.153-6.141,9.426-9.035
	c2.836-2.527,5.796-4.89,8.773-7.252c3.943-2.919,7.923-5.718,12.044-8.386c3.772-2.454,7.837-4.45,11.926-6.334
	c5.949-2.376,11.992-4.518,18.034-6.649c2.893-1.032,5.857-1.968,8.868-2.562c3.335-0.661,6.67-1.207,10.016-1.718
	c7.254-0.935,14.521-1.742,21.817-2.099c7.412-0.366,14.789-0.123,22.154,0.727c5.403,0.862,10.764,2.084,16.091,3.328
	c5.264,1.228,10.459,2.861,15.549,4.692c1.47,0.648,2.921,1.309,4.333,2.102c1.562,0.857,2.986,1.937,4.403,3.017
	c2.439,2.078,4.738,4.227,6.978,6.503c2.227,2.261,4.198,4.789,6.161,7.282c2.258,2.981,4.461,5.984,6.549,9.09
	c2.079,3.076,3.642,6.473,5.14,9.868c1.409,3.609,2.822,7.244,3.836,10.975c0.58,2.122,1.113,4.22,1.552,6.378
	c0.309,1.487,0.531,2.98,0.736,4.48c0.154,1.853,0.33,3.695,0.377,5.562C499.862,136.86,499.776,140.619,499.348,144.414z"/>
<path d="M398.095,81.783c-0.006,0.001-0.012,0.001-0.018,0.002c0.025-0.002,0.051-0.006,0.074-0.009
	c0.014-0.001,0.026-0.004,0.039-0.005C398.16,81.774,398.128,81.779,398.095,81.783z"/>
<path d="M474.001,200.311c-0.009,0.02-0.018,0.04-0.026,0.06c-0.141,0.336-0.281,0.671-0.424,1.007
	C473.705,201.022,473.858,200.667,474.001,200.311z"/>
<path d="M473.17,202.288c-0.039,0.092-0.083,0.182-0.123,0.274c-0.074,0.174-0.147,0.348-0.221,0.521
	C472.942,202.821,473.056,202.557,473.17,202.288z"/>
<path d="M398.357,81.75c-0.009,0.001-0.021,0.004-0.03,0.005c0.033-0.004,0.067-0.008,0.1-0.013
	C398.405,81.744,398.38,81.746,398.357,81.75z"/>
<path d="M465.588,197.304c0.002-0.005,0.005-0.011,0.007-0.017c-0.008,0.019-0.017,0.037-0.025,0.056
	C465.577,197.33,465.583,197.317,465.588,197.304z"/>
<path d="M378.837,98.711l-0.008-0.009L378.837,98.711z"/>
<path d="M353.117,162.648c2.277,1.398,5.014,2.122,7.647,2.489c0.569,0.142,1.15,0.19,1.732,0.154
	c0.817-0.035,1.636-0.214,2.43-0.403c1.257-0.297,2.479-0.926,3.64-1.506c1.518-0.747,2.882-1.791,4.114-2.94
	c1.233-1.162,2.348-2.478,3.437-3.783c1.624-1.945,3.474-4.137,3.13-6.864c0-0.771-0.202-1.494-0.582-2.158
	c-0.39-0.641-0.901-1.162-1.541-1.541c-0.664-0.379-1.387-0.582-2.157-0.582c-0.77,0-1.494,0.201-2.157,0.582
	c-1.447,0.641-2.229,1.944-3.046,3.225c-0.398,0.618-0.823,1.212-1.259,1.803c-0.983,1.225-2.008,2.479-3.189,3.52
	c-0.714,0.48-1.452,0.905-2.219,1.294c-0.365,0.135-0.731,0.252-1.109,0.345c-0.293-0.002-0.582-0.02-0.87-0.048
	c-1.053-0.188-2.076-0.426-3.077-0.787c-0.396-0.197-0.78-0.411-1.157-0.648c-0.474-0.418-0.911-0.863-1.325-1.34
	c-0.29-0.436-0.545-0.872-0.774-1.337c-0.351-0.909-0.649-1.826-0.839-2.783c-0.034-0.675-0.025-1.343,0.032-2.013
	c0.307-1.536,0.764-2.994,1.332-4.447c0.35-0.749,0.713-1.47,1.116-2.201c0.452-0.806,1.032-1.565,1.565-2.312
	c1.15-1.624,0.297-4.054-1.316-4.991c-0.564-0.335-1.208-0.502-1.857-0.502c-0.319,0-0.639,0.041-0.953,0.123
	c-0.985,0.273-1.6,0.877-2.182,1.683c-1.056,1.482-2.002,2.963-2.869,4.564c-0.889,1.671-1.589,3.474-2.205,5.264
	c-0.474,1.352-0.665,2.751-0.818,4.162c-0.202,1.791,0.177,3.604,0.664,5.311C347.474,157.61,349.906,160.691,353.117,162.648z"/>
<path d="M389.281,188.1c1.457,0.771,3.283,1.376,4.955,1.434c1.387,0.059,2.81-0.165,4.112-0.651
	c1.921-0.712,3.533-1.612,4.992-3.071c1.066-1.079,1.98-2.442,2.668-3.793c0.344-0.676,0.664-1.423,0.83-2.169
	c0.236-1.02,0.13-1.85-0.083-2.833c-0.177-0.842-0.842-1.612-1.565-2.039c-0.972-0.569-2.488-0.7-3.449,0
	c-0.416,0.296-0.818,0.521-1.221,0.889c-0.427,0.368-0.735,0.889-1.044,1.363c-0.384,0.611-0.72,1.239-1.123,1.836
	c-0.521,0.598-1.082,1.147-1.679,1.667c-0.569,0.387-1.157,0.717-1.779,1.019c-0.327,0.113-0.655,0.206-0.991,0.283
	c-0.374,0.013-0.745,0.011-1.121-0.013c-0.421-0.089-0.824-0.196-1.228-0.333c-0.761-0.365-1.474-0.783-2.16-1.265
	c-0.439-0.389-0.857-0.781-1.252-1.213c-0.187-0.271-0.356-0.545-0.508-0.837c-0.087-0.28-0.162-0.56-0.221-0.845
	c-0.019-0.444,0.001-0.89,0.038-1.34c0.193-1.031,0.515-2.008,0.897-2.982c0.324-0.656,0.681-1.277,1.093-1.871
	c0.398-0.465,0.824-0.888,1.288-1.29c0.222-0.15,0.45-0.303,0.669-0.449c1.34-0.877,1.896-2.585,1.056-4.019
	c-0.53-0.909-1.572-1.479-2.61-1.479c-0.493,0-0.986,0.129-1.421,0.411c-1.245,0.83-2.43,1.719-3.449,2.833
	c-1.009,1.079-1.767,2.324-2.407,3.651c-1.199,2.466-1.909,5.264-1.411,8.003C381.93,183.251,385.642,186.203,389.281,188.1z"/>
<path d="M427.235,208.84c1.292,0.272,2.643,0.391,3.96,0.403c0.759,0.012,1.47-0.059,2.218-0.167
	c1.056-0.142,1.98-0.569,2.952-0.995c2.501-1.127,4.409-3.166,6.13-5.228c1.267-1.528,2.419-3.177,3.592-4.79
	c0.911-1.257,1.754-2.572,2.371-4.007c0.45-1.032,0.722-1.956,0.415-3.095c-0.284-1.008-0.961-1.885-1.849-2.407
	c-0.936-0.545-2.063-0.688-3.106-0.403c-1.41,0.391-2.346,1.459-2.81,2.81c-0.196,0.586-0.401,1.164-0.617,1.742
	c-1.069,2.3-2.467,4.411-3.988,6.442c-0.463,0.53-0.926,1.037-1.446,1.499c-0.509,0.33-1.043,0.616-1.591,0.883
	c-0.288,0.103-0.58,0.194-0.879,0.267c-0.862,0.038-1.725-0.034-2.586-0.113c-1.05-0.186-2.046-0.462-3.051-0.838
	c-0.85-0.404-1.667-0.852-2.452-1.376c-0.284-0.258-0.545-0.53-0.794-0.818c-0.41-0.617-0.765-1.252-1.084-1.918
	c-0.161-0.472-0.284-0.94-0.379-1.423c-0.024-0.498-0.022-0.978,0.002-1.47c0.167-0.924,0.392-1.824,0.707-2.712
	c0.697-1.381,1.598-2.623,2.527-3.858c1.239-1.42,2.514-2.742,3.92-3.989c1.671-1.47,1.494-4.257,0-5.75
	c-0.759-0.759-1.791-1.186-2.869-1.186c-1.127,0-2.051,0.462-2.87,1.186c-2.845,2.513-5.252,5.417-7.219,8.654
	c-1.376,2.253-1.862,4.813-2.182,7.387c-0.332,2.644,0.545,5.335,1.754,7.647C418.224,205.461,422.706,207.857,427.235,208.84z"/>
<path d="M379.756,217.869c1.47,0.261,2.952,0.427,4.434,0.605c2.833,0.344,5.584,0.13,8.394-0.249
	c3.189-0.439,6.331-1.553,9.319-2.727c0.924-0.356,1.849-0.735,2.715-1.233c1.801-1.032,2.68-3.248,2.135-5.24
	c-0.32-1.162-1.104-2.169-2.135-2.774c-0.983-0.58-2.466-0.901-3.58-0.474c-0.638,0.246-1.271,0.519-1.902,0.794
	c-2.716,1.041-5.59,1.83-8.458,2.296c-1.518,0.145-3.001,0.176-4.53,0.051c-0.527-0.038-1.056-0.108-1.582-0.17
	c-1.579-0.236-3.153-0.504-4.703-0.921c-1.747-0.478-3.417-1.051-5.082-1.713c-2.229-1.053-4.422-2.157-6.446-3.565
	c-1.601-1.352-3.07-2.779-4.458-4.355c-0.762-1.063-1.456-2.15-2.095-3.3c-0.61-1.079-1.109-2.229-1.596-3.375
	c-0.365-0.954-0.717-1.896-1.001-2.874c-0.116-0.401-0.197-0.813-0.266-1.227c-0.204-2.716-0.004-5.41,0.337-8.127
	c0.154-1.221-0.629-2.68-1.457-3.51c-0.926-0.924-2.193-1.447-3.51-1.447c-1.305,0-2.585,0.521-3.51,1.447
	c-1.02,1.032-1.281,2.134-1.459,3.51c-0.309,2.407-0.783,4.872-0.722,7.303c0.047,1.849,0.272,3.722,0.722,5.513
	c0.439,1.731,1.209,3.462,1.933,5.098c1.056,2.371,2.182,4.611,3.781,6.687c0.902,1.186,1.838,2.3,2.892,3.355
	c1.221,1.197,2.55,2.252,3.901,3.284c3.024,2.312,6.663,3.913,10.208,5.241C374.563,216.719,377.112,217.406,379.756,217.869z"/>
<g>
</g>
<g>
</g>
<g>
</g>
<g>
</g>
<g>
</g>
<g>
</g>
<g>
</g>
<g>
</g>
<g>
</g>
<g>
</g>
<g>
</g>
<g>
</g>
<g>
</g>
<g>
</g>
<g>
</g>
</svg>
